PathFileType	4	(X/Y/Z)	E:\Qualisys_Data\Carbon_Farble_Plate\Data\Amateur_Runner\S2\T3\S2T3V22_c3d.trc
DataRate	CameraRate	NumFrames	NumMarkers	Units	OrigDataRate	OrigDataStartFrame	OrigNumFrames
200.000000	200.000000	4	39	mm	200.000000	237	316
Frame#	Time	LSHO			RSHO			LICST			RICST			LASIS			LHEEL			RASIS			LTROC			RTROC			SACR			LTH1			LSK4			LTH2			LTH3			RHM5			LSK2			LTH4			RTH1			LTOE			RTH2			RTH3			RTH4			LLEP			RLEP			LSK1			LSK3			RSK1			LHM5			RSK2			LFT1			RSK3			RSK4			LLME			RLME			RTOE			RHEEL			RFT1			RFT2			LFT2			
		X1	Y1	Z1	X2	Y2	Z2	X3	Y3	Z3	X4	Y4	Z4	X5	Y5	Z5	X6	Y6	Z6	X7	Y7	Z7	X8	Y8	Z8	X9	Y9	Z9	X10	Y10	Z10	X11	Y11	Z11	X12	Y12	Z12	X13	Y13	Z13	X14	Y14	Z14	X15	Y15	Z15	X16	Y16	Z16	X17	Y17	Z17	X18	Y18	Z18	X19	Y19	Z19	X20	Y20	Z20	X21	Y21	Z21	X22	Y22	Z22	X23	Y23	Z23	X24	Y24	Z24	X25	Y25	Z25	X26	Y26	Z26	X27	Y27	Z27	X28	Y28	Z28	X29	Y29	Z29	X30	Y30	Z30	X31	Y31	Z31	X32	Y32	Z32	X33	Y33	Z33	X34	Y34	Z34	X35	Y35	Z35	X36	Y36	Z36	X37	Y37	Z37	X38	Y38	Z38	X39	Y39	Z39	

238	1.185	1298.052734375	1456.677124023438	-538.4052124023438	1388.581909179688	1443.705688476562	-252.5748748779297	1302.670532226562	990.5516967773438	-517.0332641601562	1343.113403320312	980.9859008789062	-219.9965362548828	1366.288940429688	944.4597778320312	-502.1227111816406	1445.374389648438	70.53179931640625	-400.9996032714844	1397.094116210938	931.608154296875	-245.7678985595703	1245.066284179688	866.48779296875	-518.0076904296875	1242.262451171875	893.2425537109375	-204.2542419433594	1228.42822265625	1027.146606445312	-354.2329711914062	1438.245361328125	647.63916015625	-536.6609497070312	1422.26611328125	261.9382934570312	-493.50439453125	1359.74072265625	619.937744140625	-528.7111206054688	1474.550415039062	556.9961547851562	-501.5875549316406	726.449951171875	329.5399169921875	-236.2847900390625	1412.612670898438	359.1688842773438	-509.4409790039062	1393.6181640625	529.961181640625	-498.2737731933594	1298.697509765625	608.9794311523438	-198.9208526611328	1677.079223632812	141.6733245849609	-455.6159057617188	1225.081665039062	632.8190307617188	-200.3559112548828	1268.814086914062	513.0040283203125	-206.4090270996094	1193.42138671875	539.789794921875	-215.8747711181641	1445.86474609375	501.9306945800781	-499.8930053710938	1204.983154296875	503.2422485351562	-204.4350738525391	1490.646118164062	367.9056091308594	-504.8883361816406	1502.214965820312	269.7599487304688	-492.2717590332031	1104.442504882812	439.991943359375	-202.512451171875	1621.299438476562	88.58018493652344	-502.5737915039062	1093.018432617188	519.272216796875	-204.6476898193359	1466.855102539062	49.25514602661133	-371.2900085449219	1004.299133300781	424.4631042480469	-214.1822662353516	995.639892578125	502.9528503417969	-220.6537780761719	1494.603881835938	89.18939208984375	-462.3883972167969	817.5532836914062	434.8363037109375	-253.9578094482422	736.41357421875	255.2545013427734	-282.0274353027344	831.039306640625	486.4118347167969	-316.8760986328125	810.7659912109375	476.9035949707031	-351.7508850097656	803.43994140625	499.3251647949219	-304.8173217773438	1457.38623046875	40.00119018554688	-423.5630187988281
239	1.19	1318.546997070312	1450.931640625	-540.2880249023438	1407.934326171875	1439.063232421875	-254.1175994873047	1321.864379882812	986.2469482421876	-517.9015502929688	1362.773071289062	976.0531616210938	-220.275146484375	1385.39013671875	940.4807739257812	-503.0967407226562	1453.7138671875	69.1885757446289	-398.5922546386719	1416.73974609375	926.7659301757812	-246.8099822998047	1264.756225585938	861.7796630859375	-518.521728515625	1262.250122070312	887.0994873046875	-204.82470703125	1247.892578125	1022.345031738281	-354.8270263671875	1459.122802734375	645.7547607421875	-534.4058227539062	1437.009765625	257.9996948242188	-492.9586181640625	1380.794189453125	618.4845581054688	-526.7019653320312	1494.601806640625	554.2152709960938	-500.4478454589844	750.722412109375	337.3441467285156	-236.7999725341797	1429.297119140625	355.2738952636719	-508.7472839355469	1413.816528320312	527.6085205078125	-498.3359680175781	1323.046630859375	603.7055053710938	-198.9489288330078	1687.352783203125	127.6137084960938	-452.6162109375	1249.05322265625	625.8526000976562	-200.6306304931641	1295.015014648438	507.1177062988281	-205.7577056884766	1219.135009765625	532.3778686523438	-215.6723785400391	1465.417724609375	498.4995422363281	-499.3714294433594	1231.728393554688	496.578125	-203.5334930419922	1507.764404296875	362.494384765625	-504.1171264648438	1516.443725585938	263.7325439453125	-491.5857238769531	1130.656616210938	435.6671447753906	-202.5384826660156	1628.175170898438	78.71226501464844	-500.5903015136719	1121.058715820312	515.411376953125	-205.0337677001953	1473.788696289062	46.95824813842773	-369.2633361816406	1029.5791015625	422.6443786621094	-214.9238433837891	1023.552001953125	501.810546875	-221.5052795410156	1503.002197265625	87.03607177734375	-461.106689453125	844.3261108398438	440.1494750976562	-255.6558837890625	758.9129028320312	262.0632629394531	-281.8368530273438	860.018310546875	490.0796508789062	-319.5323181152344	839.7383422851562	480.32666015625	-354.7352294921875	832.7443237304688	503.9254150390625	-307.6460266113281	1462.564453125	36.19026565551758	-419.7122802734375
240	1.195	1338.712890625	1445.01318359375	-542.6160888671875	1426.484985351562	1434.107666015625	-254.8377838134766	1340.978759765625	982.0633544921876	-518.912109375	1382.012573242188	970.8863525390624	-220.8726196289062	1403.342529296875	936.3493041992188	-504.0147094726562	1459.785278320312	70.91304016113281	-398.4579772949219	1435.778442382812	921.9033203125	-247.4591217041016	1284.092895507812	856.6769409179688	-519.1338500976562	1282.149047851562	880.6512451171875	-205.4250183105469	1266.933715820312	1017.231994628906	-356.0820617675781	1479.709228515625	643.5562133789062	-532.0248413085938	1450.603515625	254.2137145996094	-492.2598571777344	1401.632202148438	617.1306762695312	-524.7630004882812	1514.7841796875	551.2910766601562	-499.5972595214844	775.8634033203125	344.5922241210938	-237.6006317138672	1445.494995117188	351.5661926269531	-508.8877868652344	1433.869873046875	524.8287353515625	-498.4694213867188	1347.738037109375	597.9485473632812	-198.8212585449219	1697.695190429688	111.6715698242188	-450.7584838867188	1273.38720703125	619.2332153320312	-200.7387237548828	1321.3515625	501.2398986816406	-204.9463195800781	1244.942504882812	525.1618041992188	-214.8712768554688	1484.635498046875	494.7799377441406	-499.36865234375	1258.541381835938	490.3355407714844	-202.1859893798828	1524.243774414062	356.9822387695312	-503.3196105957031	1530.860107421875	258.3097534179688	-490.7953491210938	1156.915405273438	431.3663330078125	-202.9646301269531	1635.04296875	66.15431213378906	-497.2841796875	1149.578247070312	511.3863525390625	-205.7696075439453	1477.422119140625	46.81591033935547	-369.0012512207031	1056.085693359375	421.0631408691406	-216.0552062988281	1051.928466796875	500.3537292480469	-222.2725830078125	1510.723388671875	83.1907730102539	-459.7673034667969	871.52685546875	444.6768798828125	-257.6912231445312	782.5182495117188	268.5068664550781	-281.1813659667969	889.27587890625	493.196533203125	-322.2093811035156	869.1923828125	483.3644714355469	-356.5755004882812	862.3740234375	506.9756164550781	-310.912109375	1466.772094726562	36.19577789306641	-419.0953369140625
241	1.2	1359.473510742188	1438.996826171875	-544.8585815429688	1445.905395507812	1429.084228515625	-255.9542541503906	1359.6875	977.3766479492188	-519.8024291992188	1401.143432617188	965.27880859375	-221.7304229736328	1422.291870117188	931.8770141601562	-505.2795104980469	1464.512939453125	70.4922866821289	-399.6199035644531	1454.9453125	916.7589111328124	-248.3895416259766	1303.09521484375	851.6381225585938	-519.6668701171875	1302.459838867188	874.0765380859375	-205.6849517822266	1286.204345703125	1011.686889648438	-356.7230834960938	1500.41943359375	641.2786865234375	-528.6331176757812	1464.614135742188	250.6442108154297	-491.9825744628906	1422.660034179688	615.0293579101562	-522.8308715820312	1535.019897460938	547.6703491210938	-498.5429382324219	801.8607788085938	351.4740905761719	-238.1486663818359	1462.052368164062	347.9358215332031	-508.7208251953125	1453.828979492188	522.00634765625	-498.7156066894531	1372.583862304688	592.5679321289062	-198.6385803222656	1705.978881835938	96.81712341308594	-447.1157531738281	1297.466430664062	612.3236083984375	-200.9923095703125	1347.638793945312	495.1673889160156	-204.4047546386719	1270.971069335938	517.5559692382812	-214.6719970703125	1503.997802734375	490.5481567382812	-499.4412231445312	1286.02880859375	482.9526672363281	-202.3301239013672	1540.820190429688	351.0495910644531	-502.5906066894531	1544.513427734375	252.3342590332031	-489.8207397460938	1183.853881835938	427.1611328125	-202.6359558105469	1641.861083984375	55.99662399291992	-494.2303161621094	1178.190795898438	507.3262634277344	-205.8262176513672	1480.374389648438	45.88179016113281	-369.4382934570312	1082.780883789062	419.3510131835938	-216.8552856445312	1080.595458984375	498.4434509277344	-223.0370483398438	1517.480224609375	79.7506332397461	-459.4182739257812	899.6773071289062	449.1148681640625	-259.2360229492188	807.16943359375	274.3656311035156	-280.6309814453125	919.2217407226562	495.8876953125	-324.6262817382812	899.1591186523438	486.0856628417969	-358.8676147460938	892.2994995117188	510.6990661621094	-314.210693359375	1469.903442382812	35.86609649658203	-419.2575988769531
